<svg width="640" height="760" viewBox="0 0 640 760" fill="none" xmlns="http://www.w3.org/2000/svg">
  <rect width="640" height="760" rx="48" fill="url(#bg)"/>
  <rect x="20" y="20" width="600" height="720" rx="36" stroke="rgba(255,255,255,0.14)" stroke-width="2"/>
  <circle cx="320" cy="228" r="118" fill="url(#faceGlow)"/>
  <path d="M232 256C232 208.6 270.6 170 318 170H322C369.4 170 408 208.6 408 256V278C408 325.4 369.4 364 322 364H318C270.6 364 232 325.4 232 278V256Z" fill="#0F172A"/>
  <path d="M198 558C198 469.634 269.634 398 358 398H282C370.366 398 442 469.634 442 558V582H198V558Z" fill="#111827"/>
  <circle cx="270" cy="252" r="10" fill="#38BDF8"/>
  <circle cx="370" cy="252" r="10" fill="#38BDF8"/>
  <path d="M286 310C308 324 332 324 354 310" stroke="#A5F3FC" stroke-width="10" stroke-linecap="round"/>
  <path d="M204 172C246 110 314 88 374 104C434 120 470 168 470 226C448 182 402 154 348 152C296 150 244 172 204 228V172Z" fill="#0B1120"/>
  <path d="M168 636C206 596 264 576 320 576C376 576 434 596 472 636" stroke="#8B5CF6" stroke-width="4" stroke-linecap="round" opacity="0.7"/>
  <path d="M132 84H508" stroke="#38BDF8" stroke-width="2" stroke-linecap="round" opacity="0.6"/>
  <path d="M94 674H546" stroke="#38BDF8" stroke-width="2" stroke-linecap="round" opacity="0.35"/>
  <defs>
    <linearGradient id="bg" x1="68" y1="42" x2="542" y2="718" gradientUnits="userSpaceOnUse">
      <stop stop-color="#0F172A"/>
      <stop offset="0.45" stop-color="#111827"/>
      <stop offset="1" stop-color="#050816"/>
    </linearGradient>
    <radialGradient id="faceGlow" cx="0" cy="0" r="1" gradientUnits="userSpaceOnUse" gradientTransform="translate(320 228) rotate(90) scale(146)">
      <stop stop-color="#1E293B"/>
      <stop offset="0.65" stop-color="#0F172A"/>
      <stop offset="1" stop-color="#050816"/>
    </radialGradient>
  </defs>
</svg>
