<svg width="900" height="1800" viewBox="0 0 900 1800" fill="none" xmlns="http://www.w3.org/2000/svg">
  <rect width="900" height="1800" rx="42" fill="#081523"/>
  <rect x="28" y="28" width="844" height="1744" rx="34" fill="url(#bg)"/>
  <rect x="64" y="72" width="772" height="58" rx="20" fill="#11243B"/>
  <circle cx="108" cy="101" r="8" fill="#FF7A8A"/>
  <circle cx="134" cy="101" r="8" fill="#FFD06A"/>
  <circle cx="160" cy="101" r="8" fill="#5EE7B5"/>
  <rect x="64" y="166" width="772" height="264" rx="34" fill="#102844"/>
  <rect x="96" y="212" width="234" height="24" rx="12" fill="#F4F9FF"/>
  <rect x="96" y="250" width="188" height="14" rx="7" fill="#A9D2FF"/>
  <rect x="96" y="294" width="172" height="48" rx="18" fill="#2563EB"/>
  <rect x="424" y="214" width="338" height="168" rx="26" fill="#17385A"/>
  <rect x="64" y="470" width="372" height="458" rx="30" fill="#0F2138"/>
  <rect x="464" y="470" width="372" height="458" rx="30" fill="#112A47"/>
  <rect x="64" y="968" width="772" height="284" rx="30" fill="#10253F"/>
  <rect x="64" y="1292" width="772" height="366" rx="30" fill="#13314E"/>
  <text x="96" y="222" fill="#F8FBFF" font-family="Arial, sans-serif" font-size="40" font-weight="700">Instant License</text>
  <text x="96" y="390" fill="#D9ECFF" font-family="Arial, sans-serif" font-size="22">Tailored license purchase flow for business setup</text>
  <text x="96" y="536" fill="#F8FBFF" font-family="Arial, sans-serif" font-size="28" font-weight="700">Select business activity</text>
  <rect x="96" y="574" width="224" height="16" rx="8" fill="#BFDBFE"/>
  <rect x="96" y="608" width="188" height="16" rx="8" fill="#93C5FD"/>
  <rect x="96" y="654" width="308" height="188" rx="22" fill="#163B60"/>
  <text x="496" y="536" fill="#F8FBFF" font-family="Arial, sans-serif" font-size="28" font-weight="700">Choose package</text>
  <rect x="496" y="574" width="204" height="16" rx="8" fill="#BFDBFE"/>
  <rect x="496" y="608" width="172" height="16" rx="8" fill="#93C5FD"/>
  <rect x="496" y="654" width="308" height="188" rx="22" fill="#184266"/>
  <text x="96" y="1038" fill="#F8FBFF" font-family="Arial, sans-serif" font-size="30" font-weight="700">Automation-ready commerce flow with CRM handoff</text>
  <rect x="96" y="1076" width="604" height="16" rx="8" fill="#E6F2FF"/>
  <rect x="96" y="1110" width="548" height="14" rx="7" fill="#93C5FD"/>
  <rect x="96" y="1380" width="676" height="182" rx="24" fill="#17385A"/>
  <defs>
    <linearGradient id="bg" x1="450" y1="28" x2="450" y2="1772" gradientUnits="userSpaceOnUse">
      <stop stop-color="#0B1B2E"/>
      <stop offset="1" stop-color="#07111C"/>
    </linearGradient>
  </defs>
</svg>
