<svg width="900" height="1800" viewBox="0 0 900 1800" fill="none" xmlns="http://www.w3.org/2000/svg">
  <rect width="900" height="1800" rx="42" fill="#081523"/>
  <rect x="28" y="28" width="844" height="1744" rx="34" fill="url(#bg)"/>
  <rect x="64" y="72" width="772" height="58" rx="20" fill="#10233A"/>
  <circle cx="108" cy="101" r="8" fill="#FF7A8A"/>
  <circle cx="134" cy="101" r="8" fill="#FFD06A"/>
  <circle cx="160" cy="101" r="8" fill="#5EE7B5"/>
  <rect x="64" y="166" width="772" height="360" rx="34" fill="#0F2741"/>
  <rect x="98" y="214" width="264" height="24" rx="12" fill="#F2F8FF"/>
  <rect x="98" y="252" width="198" height="14" rx="7" fill="#A5CCFF"/>
  <rect x="98" y="300" width="184" height="48" rx="18" fill="#2563EB"/>
  <rect x="420" y="214" width="328" height="220" rx="28" fill="#17395A"/>
  <rect x="64" y="566" width="244" height="220" rx="28" fill="#112945"/>
  <rect x="328" y="566" width="244" height="220" rx="28" fill="#10253F"/>
  <rect x="592" y="566" width="244" height="220" rx="28" fill="#12304D"/>
  <rect x="64" y="826" width="772" height="300" rx="30" fill="#0F2036"/>
  <rect x="64" y="1166" width="372" height="492" rx="30" fill="#10243D"/>
  <rect x="464" y="1166" width="372" height="492" rx="30" fill="#13314E"/>
  <text x="98" y="224" fill="#F8FBFF" font-family="Arial, sans-serif" font-size="42" font-weight="700">MeydanFZ</text>
  <text x="98" y="394" fill="#D6E9FF" font-family="Arial, sans-serif" font-size="22">Corporate site, landing pages, and lead funnels</text>
  <text x="98" y="632" fill="#F8FBFF" font-family="Arial, sans-serif" font-size="24" font-weight="700">CX</text>
  <text x="362" y="632" fill="#F8FBFF" font-family="Arial, sans-serif" font-size="24" font-weight="700">SEO</text>
  <text x="626" y="632" fill="#F8FBFF" font-family="Arial, sans-serif" font-size="24" font-weight="700">Content</text>
  <rect x="98" y="660" width="166" height="14" rx="7" fill="#93C5FD"/>
  <rect x="362" y="660" width="166" height="14" rx="7" fill="#93C5FD"/>
  <rect x="626" y="660" width="166" height="14" rx="7" fill="#93C5FD"/>
  <text x="98" y="888" fill="#F8FBFF" font-family="Arial, sans-serif" font-size="30" font-weight="700">Modern free zone journey built for trust and conversion</text>
  <rect x="98" y="926" width="636" height="16" rx="8" fill="#D6E9FF"/>
  <rect x="98" y="960" width="568" height="14" rx="7" fill="#93C5FD"/>
  <rect x="98" y="994" width="444" height="14" rx="7" fill="#60A5FA"/>
  <defs>
    <linearGradient id="bg" x1="450" y1="28" x2="450" y2="1772" gradientUnits="userSpaceOnUse">
      <stop stop-color="#0A1A2C"/>
      <stop offset="1" stop-color="#07111C"/>
    </linearGradient>
  </defs>
</svg>
