<svg width="900" height="1800" viewBox="0 0 900 1800" fill="none" xmlns="http://www.w3.org/2000/svg">
  <rect width="900" height="1800" rx="42" fill="#081222"/>
  <rect x="28" y="28" width="844" height="1744" rx="34" fill="url(#bg)"/>
  <rect x="64" y="72" width="772" height="56" rx="18" fill="#10223B"/>
  <circle cx="106" cy="100" r="8" fill="#FF7D8A"/>
  <circle cx="132" cy="100" r="8" fill="#FFCB64"/>
  <circle cx="158" cy="100" r="8" fill="#65E0E4"/>
  <rect x="64" y="168" width="772" height="236" rx="30" fill="#102B4A"/>
  <rect x="64" y="434" width="380" height="530" rx="30" fill="#0D213A"/>
  <rect x="468" y="434" width="368" height="530" rx="30" fill="#122946"/>
  <rect x="64" y="994" width="772" height="624" rx="30" fill="#0B1D34"/>
  <text x="96" y="232" fill="#F4FAFF" font-family="Arial, sans-serif" font-size="40" font-weight="700">Optimal Biz Value</text>
  <text x="96" y="278" fill="#B7DDFF" font-family="Arial, sans-serif" font-size="20">Business valuation flow powered by React and AWS Lambda</text>
  <rect x="96" y="314" width="156" height="14" rx="7" fill="#65D0FF"/>
  <rect x="96" y="488" width="168" height="16" rx="8" fill="#F4FAFF"/>
  <rect x="96" y="530" width="210" height="12" rx="6" fill="#90CFFF"/>
  <rect x="500" y="488" width="164" height="16" rx="8" fill="#F4FAFF"/>
  <rect x="500" y="530" width="198" height="12" rx="6" fill="#A3D7FF"/>
  <rect x="96" y="1048" width="204" height="16" rx="8" fill="#F4FAFF"/>
  <rect x="96" y="1090" width="306" height="12" rx="6" fill="#8ACDFF"/>
  <rect x="96" y="1136" width="708" height="418" rx="22" fill="#143254"/>
  <defs>
    <linearGradient id="bg" x1="450" y1="28" x2="450" y2="1772" gradientUnits="userSpaceOnUse">
      <stop stop-color="#0C172B"/>
      <stop offset="1" stop-color="#08111F"/>
    </linearGradient>
  </defs>
</svg>
