<svg width="900" height="1800" viewBox="0 0 900 1800" fill="none" xmlns="http://www.w3.org/2000/svg">
  <rect width="900" height="1800" rx="42" fill="#081523"/>
  <rect x="28" y="28" width="844" height="1744" rx="34" fill="url(#bg)"/>
  <rect x="64" y="72" width="772" height="58" rx="20" fill="#11243B"/>
  <circle cx="108" cy="101" r="8" fill="#FF7A8A"/>
  <circle cx="134" cy="101" r="8" fill="#FFD06A"/>
  <circle cx="160" cy="101" r="8" fill="#5EE7B5"/>
  <rect x="64" y="166" width="212" height="1492" rx="30" fill="#0E2036"/>
  <rect x="304" y="166" width="532" height="250" rx="32" fill="#0F2843"/>
  <rect x="304" y="446" width="256" height="214" rx="28" fill="#122C48"/>
  <rect x="580" y="446" width="256" height="214" rx="28" fill="#123657"/>
  <rect x="304" y="690" width="532" height="290" rx="28" fill="#10223A"/>
  <rect x="304" y="1010" width="532" height="324" rx="28" fill="#10253F"/>
  <rect x="304" y="1364" width="532" height="294" rx="28" fill="#13314E"/>
  <text x="94" y="228" fill="#F8FBFF" font-family="Arial, sans-serif" font-size="28" font-weight="700">Publishers</text>
  <text x="94" y="262" fill="#9CC9FF" font-family="Arial, sans-serif" font-size="20">Hub</text>
  <rect x="94" y="314" width="150" height="44" rx="16" fill="#2563EB"/>
  <rect x="94" y="392" width="150" height="44" rx="16" fill="#132D4B"/>
  <rect x="94" y="470" width="150" height="44" rx="16" fill="#132D4B"/>
  <text x="336" y="232" fill="#F8FBFF" font-family="Arial, sans-serif" font-size="42" font-weight="700">Publishers Hub</text>
  <text x="336" y="280" fill="#CFE6FF" font-family="Arial, sans-serif" font-size="20">Laravel workflow engine + WordPress publishing layer</text>
  <rect x="336" y="324" width="184" height="16" rx="8" fill="#5EEAD4"/>
  <rect x="336" y="356" width="224" height="14" rx="7" fill="#93C5FD"/>
  <text x="336" y="508" fill="#F8FBFF" font-family="Arial, sans-serif" font-size="28" font-weight="700">Books</text>
  <text x="612" y="508" fill="#F8FBFF" font-family="Arial, sans-serif" font-size="28" font-weight="700">Requests</text>
  <rect x="336" y="540" width="162" height="14" rx="7" fill="#BFDBFE"/>
  <rect x="612" y="540" width="164" height="14" rx="7" fill="#BFDBFE"/>
  <text x="336" y="754" fill="#F8FBFF" font-family="Arial, sans-serif" font-size="30" font-weight="700">Operational dashboard for publishers</text>
  <rect x="336" y="792" width="352" height="16" rx="8" fill="#E6F2FF"/>
  <rect x="336" y="826" width="306" height="14" rx="7" fill="#93C5FD"/>
  <rect x="336" y="1068" width="440" height="156" rx="22" fill="#17385A"/>
  <rect x="336" y="1426" width="440" height="156" rx="22" fill="#184266"/>
  <defs>
    <linearGradient id="bg" x1="450" y1="28" x2="450" y2="1772" gradientUnits="userSpaceOnUse">
      <stop stop-color="#0B1B2E"/>
      <stop offset="1" stop-color="#07111C"/>
    </linearGradient>
  </defs>
</svg>
