<svg width="900" height="1800" viewBox="0 0 900 1800" fill="none" xmlns="http://www.w3.org/2000/svg">
  <rect width="900" height="1800" rx="42" fill="#120A1B"/>
  <rect x="28" y="28" width="844" height="1744" rx="34" fill="url(#bg)"/>
  <rect x="64" y="72" width="772" height="56" rx="18" fill="#25143C"/>
  <circle cx="106" cy="100" r="8" fill="#FF849D"/>
  <circle cx="132" cy="100" r="8" fill="#FFC65C"/>
  <circle cx="158" cy="100" r="8" fill="#7CE7CC"/>
  <rect x="64" y="168" width="200" height="1500" rx="28" fill="#1D1230"/>
  <rect x="292" y="168" width="544" height="250" rx="30" fill="#251742"/>
  <rect x="292" y="448" width="544" height="340" rx="30" fill="#201437"/>
  <rect x="292" y="818" width="260" height="310" rx="28" fill="#241A44"/>
  <rect x="576" y="818" width="260" height="310" rx="28" fill="#2D1E4D"/>
  <rect x="292" y="1158" width="544" height="460" rx="30" fill="#23163D"/>
  <text x="320" y="228" fill="#FFF7FF" font-family="Arial, sans-serif" font-size="38" font-weight="700">As One Management / Xquic</text>
  <text x="320" y="274" fill="#E8C8FF" font-family="Arial, sans-serif" font-size="20">Hotel contracts, OTA reporting, and operational workflows</text>
  <rect x="320" y="312" width="190" height="14" rx="7" fill="#FF93D2"/>
  <rect x="92" y="230" width="144" height="16" rx="8" fill="#F4E7FF"/>
  <rect x="92" y="270" width="112" height="12" rx="6" fill="#D7B9FF"/>
  <rect x="92" y="326" width="144" height="54" rx="18" fill="#281B48"/>
  <rect x="92" y="400" width="144" height="54" rx="18" fill="#281B48"/>
  <rect x="92" y="474" width="144" height="54" rx="18" fill="#281B48"/>
  <rect x="320" y="502" width="190" height="16" rx="8" fill="#FFF7FF"/>
  <rect x="320" y="542" width="298" height="12" rx="6" fill="#CBB6FF"/>
  <rect x="320" y="596" width="480" height="150" rx="22" fill="#35245D"/>
  <rect x="320" y="872" width="142" height="16" rx="8" fill="#FFF7FF"/>
  <rect x="604" y="872" width="142" height="16" rx="8" fill="#FFF7FF"/>
  <rect x="320" y="1214" width="200" height="16" rx="8" fill="#FFF7FF"/>
  <rect x="320" y="1254" width="320" height="12" rx="6" fill="#D9C4FF"/>
  <rect x="320" y="1300" width="480" height="250" rx="22" fill="#322151"/>
  <defs>
    <linearGradient id="bg" x1="450" y1="28" x2="450" y2="1772" gradientUnits="userSpaceOnUse">
      <stop stop-color="#1A0F29"/>
      <stop offset="1" stop-color="#120A1C"/>
    </linearGradient>
  </defs>
</svg>
